<?xml version="1.0" encoding="UTF-8"?>
<svg version="1.1" xmlns="http://www.w3.org/2000/svg" width="512" height="512">
<path d="M0 0 C9.40707465 5.68464327 15.68680199 13.83643636 18.546875 24.5390625 C18.89097173 27.41926636 18.96207692 30.26531196 18.984375 33.1640625 C19.01724609 33.89496094 19.05011719 34.62585937 19.08398438 35.37890625 C19.19043811 46.58558138 12.77398652 56.35449599 7.171875 65.6640625 C5.92245412 67.77300936 4.67378186 69.88239987 3.42578125 71.9921875 C2.78527832 73.07048828 2.14477539 74.14878906 1.48486328 75.25976562 C-1.68289958 80.61998115 -4.78610064 86.01705419 -7.890625 91.4140625 C-9.13140166 93.56777099 -10.37228797 95.72141632 -11.61328125 97.875 C-12.23605957 98.95620117 -12.85883789 100.03740234 -13.50048828 101.15136719 C-15.56455258 104.73238196 -17.6314955 108.31172237 -19.69921875 111.890625 C-20.73905355 113.69092116 -21.77884767 115.49124081 -22.81863403 117.29156494 C-23.81030484 119.00821458 -24.80248663 120.724569 -25.79467773 122.44091797 C-26.39094971 123.47361816 -26.98722168 124.50631836 -27.6015625 125.5703125 C-28.12927246 126.48361328 -28.65698242 127.39691406 -29.20068359 128.33789062 C-29.98649011 129.71894941 -30.74251748 131.11784745 -31.453125 132.5390625 C-30.64875 132.7246875 -29.844375 132.9103125 -29.015625 133.1015625 C-17.6555397 137.68545657 -9.19773653 147.73517692 -4.4609375 158.765625 C-1.85699425 165.93151535 -1.16856373 171.79000186 -1.21261597 179.40330505 C-1.21005269 181.02936325 -1.21005269 181.02936325 -1.20743763 182.68827111 C-1.20414753 186.3149534 -1.21513873 189.94145003 -1.22607422 193.56811523 C-1.22663844 196.17009985 -1.22632157 198.77208478 -1.22518921 201.37406921 C-1.22414204 206.97303114 -1.23040107 212.57194635 -1.24166489 218.17089653 C-1.2579397 226.26596692 -1.26312992 234.36101478 -1.26564087 242.45609976 C-1.27001486 255.59078177 -1.28331594 268.72543891 -1.30224609 281.86010742 C-1.32061254 294.6169421 -1.33476531 307.37377 -1.34326172 320.13061523 C-1.34378717 320.917343 -1.34431261 321.70407077 -1.34485398 322.51463877 C-1.34746411 326.4615391 -1.34999152 330.40843948 -1.35247779 334.35533988 C-1.37320108 367.08326554 -1.40841856 399.81116069 -1.453125 432.5390625 C-0.42832031 432.48105469 0.59648437 432.42304688 1.65234375 432.36328125 C3.01297511 432.31636293 4.37365596 432.27086498 5.734375 432.2265625 C6.40791016 432.18466797 7.08144531 432.14277344 7.77539062 432.09960938 C11.69121576 432.00410144 13.36657225 432.39949079 16.49571228 434.82174683 C19.20085441 438.4054338 19.25225487 441.41403688 19.17578125 445.734375 C19.17819321 446.52246552 19.18060516 447.31055603 19.18309021 448.12252808 C19.18211301 449.78844231 19.16874933 451.45438952 19.14379883 453.12011719 C19.10975573 455.6359263 19.12307695 458.14816411 19.14257812 460.6640625 C19.13009353 474.73489415 16.3588177 486.10155408 6.546875 496.69921875 C-1.85218018 504.72331611 -11.32647386 508.69775075 -22.84870243 508.67328358 C-23.97513903 508.67681192 -23.97513903 508.67681192 -25.12433192 508.68041155 C-27.65492895 508.68709845 -30.18547459 508.68664342 -32.71607971 508.68623352 C-34.54310447 508.68953234 -36.3701285 508.69325795 -38.1971516 508.697375 C-43.22917732 508.70740111 -48.26119111 508.71111278 -53.29322541 508.71376431 C-58.71605253 508.71766556 -64.13887019 508.72724403 -69.56169128 508.73597717 C-82.66363815 508.75574682 -95.76558579 508.76580851 -108.86754385 508.77470496 C-115.03607017 508.77908711 -121.20459562 508.78445412 -127.37312126 508.78969383 C-147.87639596 508.80670674 -168.37967011 508.82120114 -188.88295078 508.82844257 C-194.20460066 508.8303525 -199.52625053 508.83227117 -204.84790039 508.83422852 C-205.50904065 508.83446867 -206.17018091 508.83470882 -206.85135573 508.83495624 C-227.61617935 508.84260214 -248.38095145 508.864269 -269.14575195 508.89575195 C-292.47390479 508.93110598 -315.80202031 508.95269711 -339.1302008 508.95608681 C-351.48195762 508.95825259 -363.83363306 508.96701117 -376.18536568 508.99254799 C-386.70428753 509.01424515 -397.22310825 509.02231021 -407.74204994 509.01258121 C-413.10845068 509.00803368 -418.47464269 509.00994928 -423.84101486 509.02934265 C-428.75689012 509.04695444 -433.67240406 509.04599254 -438.58828305 509.03044536 C-440.36358738 509.02806629 -442.13891659 509.03240833 -443.91418285 509.04427401 C-459.3051308 509.14074638 -470.85582246 506.36932917 -482.45703125 495.6953125 C-492.71849295 484.8797762 -493.70424567 472.81342857 -493.80322266 458.70385742 C-493.81980839 456.97064816 -493.84713306 455.23750803 -493.88525391 453.50463867 C-493.94008004 450.99622403 -493.96189891 448.48940211 -493.9765625 445.98046875 C-493.99923187 445.20949356 -494.02190125 444.43851837 -494.04525757 443.6441803 C-494.03050709 439.87908248 -493.68786187 437.85128195 -491.40493774 434.81480408 C-487.74817493 431.99557133 -485.05469464 431.95200314 -480.640625 432.2265625 C-479.94775391 432.24912109 -479.25488281 432.27167969 -478.54101562 432.29492188 C-476.84410927 432.35343589 -475.14832639 432.4431077 -473.453125 432.5390625 C-473.45464388 431.98500315 -473.45616276 431.43094381 -473.45772767 430.86009479 C-473.5473201 397.99199359 -473.61591165 365.12392311 -473.65738632 332.2557271 C-473.6623889 328.30557567 -473.66756621 324.35542449 -473.67285156 320.40527344 C-473.6739008 319.61889886 -473.67495005 318.83252429 -473.67603108 318.02232018 C-473.69341679 305.30426435 -473.72494432 292.58628115 -473.76173618 279.86826834 C-473.79919676 266.80979163 -473.82137165 253.75135284 -473.82947898 240.6928246 C-473.83495617 232.64074813 -473.85222946 224.58887696 -473.88479087 216.53686371 C-473.90851639 210.35331576 -473.91093196 204.169923 -473.90555573 197.98633575 C-473.9066535 195.45642333 -473.9145744 192.92650292 -473.9299469 190.39663696 C-473.94995966 186.93233574 -473.94502232 183.46890049 -473.93414307 180.00457764 C-473.94579443 179.01232138 -473.9574458 178.02006513 -473.96945024 176.99774051 C-473.85882307 163.89186547 -468.65577073 151.81929828 -459.703125 142.2890625 C-452.75625107 135.72665297 -443.24563116 129.5390625 -433.453125 129.5390625 C-433.46977959 128.16510063 -433.46977959 128.16510063 -433.48677063 126.76338196 C-433.58700052 118.1266447 -433.66310415 109.49010306 -433.71218586 100.85291767 C-433.7382679 96.41251608 -433.77363982 91.97259547 -433.83032227 87.5324707 C-433.88469279 83.24657154 -433.91455602 78.96113467 -433.92751122 74.67491722 C-433.93674215 73.04060781 -433.95476855 71.4063234 -433.98177528 69.77221107 C-434.01813515 67.48080627 -434.02306783 65.19130558 -434.02075195 62.8996582 C-434.03740654 60.94440971 -434.03740654 60.94440971 -434.05439758 58.94966125 C-433.27881655 54.55033258 -431.91328326 53.30696877 -428.453125 50.5390625 C-425.1500473 49.9098568 -425.1500473 49.9098568 -421.31774902 49.90414429 C-420.61055017 49.89634433 -419.90335132 49.88854438 -419.17472219 49.88050807 C-416.81060924 49.86060164 -414.44810858 49.87634546 -412.08398438 49.89208984 C-410.38693809 49.88531305 -408.68989915 49.87640957 -406.99287415 49.86553955 C-402.38742605 49.84274675 -397.78253803 49.85158237 -393.17708015 49.86743498 C-388.35741797 49.88009409 -383.53780372 49.86835383 -378.71813965 49.86050415 C-370.62434275 49.85140762 -362.53077398 49.86339559 -354.43701172 49.88720703 C-345.07954359 49.91441833 -335.72262016 49.90560417 -326.36516523 49.878075 C-318.33103507 49.85538503 -310.29706889 49.8521833 -302.26291704 49.86526835 C-297.46446841 49.87306348 -292.66627581 49.87410276 -287.86784363 49.85758591 C-283.35651846 49.84314201 -278.84589553 49.85316111 -274.33464622 49.88205719 C-272.67904514 49.88866848 -271.02338496 49.88676953 -269.36780739 49.87574387 C-267.10724099 49.86207716 -264.848924 49.87921326 -262.58850098 49.90414429 C-261.32384254 49.90602942 -260.05918411 49.90791454 -258.7562027 49.9098568 C-254.56800659 50.70766936 -253.08329852 52.25493655 -250.453125 55.5390625 C-249.7890625 58.0390625 -249.7890625 58.0390625 -249.828125 60.5390625 C-249.81523437 61.3640625 -249.80234375 62.1890625 -249.7890625 63.0390625 C-250.453125 65.5390625 -250.453125 65.5390625 -255.453125 70.5390625 C-307.593125 70.5390625 -359.733125 70.5390625 -413.453125 70.5390625 C-413.453125 189.9990625 -413.453125 309.4590625 -413.453125 432.5390625 C-297.293125 432.5390625 -181.133125 432.5390625 -61.453125 432.5390625 C-61.948125 310.2740625 -61.948125 310.2740625 -62.453125 185.5390625 C-69.383125 197.9140625 -69.383125 197.9140625 -76.453125 210.5390625 C-84.0944374 223.68762709 -84.0944374 223.68762709 -86.890625 228.44921875 C-90.5852581 234.75476669 -94.24165181 241.08200686 -97.890625 247.4140625 C-98.51316162 248.49421631 -99.13569824 249.57437012 -99.77709961 250.68725586 C-101.03889326 252.87702584 -102.30053034 255.06688605 -103.56201172 257.25683594 C-105.44260606 260.52080577 -107.32453046 263.78400439 -109.20703125 267.046875 C-110.13539795 268.6561084 -110.13539795 268.6561084 -111.08251953 270.29785156 C-112.32377885 272.44859011 -113.56563526 274.59898418 -114.80810547 276.74902344 C-117.71653113 281.78398243 -120.61850888 286.82229649 -123.49588013 291.87506104 C-124.51120158 293.65725393 -125.52870775 295.43818162 -126.546875 297.21875 C-127.82075563 299.4480411 -129.09056411 301.67966619 -130.35546875 303.9140625 C-135.87131403 313.54840559 -140.85345441 320.66691202 -150.015625 327.0390625 C-151.71094868 328.25207291 -153.40490855 329.46699116 -155.09765625 330.68359375 C-155.97502441 331.31088379 -156.85239258 331.93817383 -157.75634766 332.58447266 C-162.30347749 335.8801744 -166.74833109 339.30771045 -171.203125 342.7265625 C-172.96321504 344.06553363 -174.72362553 345.40408364 -176.484375 346.7421875 C-179.61060956 349.1216794 -182.71320738 351.52661362 -185.796875 353.9609375 C-187.09863199 354.96656842 -188.40069337 355.97180549 -189.703125 356.9765625 C-190.54182129 357.65851685 -190.54182129 357.65851685 -191.39746094 358.35424805 C-195.79433474 361.70052394 -200.01597494 362.71072044 -205.453125 362.5390625 C-209.123386 360.97724931 -210.2258623 359.87995654 -212.453125 356.5390625 C-212.578125 353.8515625 -212.578125 353.8515625 -212.453125 351.5390625 C-213.64941953 351.54321057 -213.64941953 351.54321057 -214.86988163 351.54744244 C-234.28325314 351.61372032 -253.69660205 351.66335188 -273.1100626 351.69449902 C-282.49830249 351.70996222 -291.88646682 351.73104132 -301.2746582 351.76538086 C-309.4582275 351.79529991 -317.64174206 351.81464148 -325.82536453 351.82132798 C-330.15779549 351.82523599 -334.49006989 351.834409 -338.82245064 351.85625267 C-342.90260727 351.87665742 -346.98254324 351.88288826 -351.06274605 351.87838554 C-352.55788371 351.87920896 -354.05302896 351.88515091 -355.54812241 351.89667892 C-369.88294274 352.00176078 -369.88294274 352.00176078 -375.453125 348.5390625 C-377.55375255 345.38812117 -377.79625786 344.3166259 -377.890625 340.6640625 C-377.93058594 339.82101562 -377.97054687 338.97796875 -378.01171875 338.109375 C-377.19540557 334.35319266 -375.38873156 332.95597325 -372.453125 330.5390625 C-369.30787182 329.92382336 -369.30787182 329.92382336 -365.70170593 329.93778992 C-365.03589833 329.93351779 -364.37009072 329.92924567 -363.68410712 329.92484409 C-361.4601814 329.91662879 -359.23815525 329.94407036 -357.0144043 329.97143555 C-355.41762842 329.97284636 -353.82084931 329.9720534 -352.22407532 329.96922302 C-347.8936464 329.96778872 -343.56391028 329.99718038 -339.23364234 330.03209281 C-334.70664468 330.06335415 -330.17963106 330.06628687 -325.65254211 330.07221985 C-317.0818914 330.08775896 -308.51155966 330.1287883 -299.9410494 330.1789673 C-290.18300217 330.23485868 -280.4249397 330.26234674 -270.66677225 330.28744447 C-250.59537848 330.33970412 -230.52427184 330.42764772 -210.453125 330.5390625 C-210.37010132 329.61625488 -210.37010132 329.61625488 -210.28540039 328.67480469 C-210.03205018 325.87925254 -209.77388806 323.08416488 -209.515625 320.2890625 C-209.42861328 319.32097656 -209.34160156 318.35289062 -209.25195312 317.35546875 C-209.16494141 316.42089844 -209.07792969 315.48632812 -208.98828125 314.5234375 C-208.909729 313.66459961 -208.83117676 312.80576172 -208.75024414 311.92089844 C-208.47602597 309.72264661 -208.04245534 307.67187705 -207.453125 305.5390625 C-208.27642335 305.54182788 -209.0997217 305.54459326 -209.94796848 305.54744244 C-229.98722969 305.61371605 -250.02647198 305.66334981 -270.06581974 305.69449902 C-279.75672913 305.70996319 -289.44756533 305.73104416 -299.13842773 305.76538086 C-307.58568558 305.79529693 -316.03289041 305.81464077 -324.48019975 305.82132798 C-328.95235694 305.82523649 -333.42436248 305.83441273 -337.89647102 305.85625267 C-342.10794997 305.87665269 -346.31921516 305.8828892 -350.53073883 305.87838554 C-352.07425283 305.87920917 -353.61777416 305.88515393 -355.16124535 305.89667892 C-357.27414372 305.91167861 -359.3862426 305.90798963 -361.49916077 305.89982605 C-362.67997758 305.90259143 -363.86079439 305.90535681 -365.07739353 305.90820599 C-369.18493145 305.45903789 -371.79088313 304.45026531 -375.453125 302.5390625 C-377.55375255 299.38812117 -377.79625786 298.3166259 -377.890625 294.6640625 C-377.93058594 293.82101562 -377.97054687 292.97796875 -378.01171875 292.109375 C-377.19377159 288.34567409 -375.40170613 286.95474327 -372.453125 284.5390625 C-369.21416759 283.92382336 -369.21416759 283.92382336 -365.47392273 283.93778992 C-364.78361381 283.93351779 -364.09330489 283.92924567 -363.38207752 283.92484409 C-361.0752601 283.91662584 -358.77027211 283.94407602 -356.46362305 283.97143555 C-354.80773461 283.97284629 -353.15184304 283.97205353 -351.49595642 283.96922302 C-347.00438593 283.96778846 -342.51348311 283.99718446 -338.02206779 284.03209281 C-333.32690551 284.06334976 -328.63172792 284.06628653 -323.93647766 284.07221985 C-315.04708877 284.08776024 -306.15800733 284.12879136 -297.26875383 284.1789673 C-287.14795492 284.23485466 -277.02714132 284.26234574 -266.90622652 284.28744447 C-246.0883544 284.33970703 -225.27075907 284.42765315 -204.453125 284.5390625 C-204.27632202 282.94276001 -204.27632202 282.94276001 -204.09594727 281.31420898 C-203.51767704 277.91816171 -202.92848331 276.01148303 -201.16796875 273.13671875 C-200.49604492 272.02006836 -200.49604492 272.02006836 -199.81054688 270.88085938 C-199.34197266 270.12869141 -198.87339844 269.37652344 -198.390625 268.6015625 C-197.91818359 267.82232422 -197.44574219 267.04308594 -196.95898438 266.24023438 C-195.80070911 264.33317509 -194.63208617 262.43337711 -193.453125 260.5390625 C-194.3485756 260.53667415 -195.2440262 260.53428579 -196.16661167 260.53182507 C-217.95846474 260.47267996 -239.75020717 260.39713294 -261.54193974 260.30334759 C-272.08027712 260.25838883 -282.61858071 260.2189743 -293.15698242 260.19262695 C-302.34263167 260.16964758 -311.52817396 260.13625014 -320.71373838 260.09036094 C-325.57708442 260.06642799 -330.44032452 260.04769965 -335.3037281 260.04144859 C-339.88298208 260.03539811 -344.46196501 260.01539945 -349.04111862 259.98478699 C-350.72005646 259.97600621 -352.39902971 259.97228427 -354.07798958 259.97405434 C-356.37486043 259.97571102 -358.67090883 259.95897517 -360.96766663 259.93778992 C-362.25172425 259.93318095 -363.53578188 259.92857199 -364.85875034 259.92382336 C-369.08845686 259.47105322 -371.69831477 258.51636898 -375.453125 256.5390625 C-377.55375255 253.38812117 -377.79625786 252.3166259 -377.890625 248.6640625 C-377.95056641 247.39949219 -377.95056641 247.39949219 -378.01171875 246.109375 C-377.18724001 242.31561968 -375.45394162 240.94879287 -372.453125 238.5390625 C-369.63252135 238.08018659 -367.43652977 237.92809795 -364.63008118 238.01422119 C-363.4581934 238.0196796 -363.4581934 238.0196796 -362.26263112 238.02524829 C-359.64734473 238.0430951 -357.0339835 238.09650613 -354.41918945 238.14941406 C-352.54309871 238.16879539 -350.66698131 238.18572765 -348.79084778 238.20039368 C-344.75113555 238.23565336 -340.71193463 238.28518804 -336.67251015 238.34482574 C-330.28030026 238.43599303 -323.88840598 238.47632315 -317.49565125 238.50604248 C-299.31760577 238.59640239 -281.14068073 238.72016554 -262.96411133 238.97412109 C-252.92425025 239.11397497 -242.88583749 239.1930267 -232.84498566 239.20424819 C-227.53320751 239.2128571 -222.2258284 239.25311006 -216.91521645 239.36884308 C-211.91584804 239.47767643 -206.9222134 239.50710228 -201.92181206 239.47682762 C-200.09223657 239.47985814 -198.26243327 239.51185192 -196.43396759 239.57563972 C-188.20544145 239.90993613 -188.20544145 239.90993613 -180.453125 237.5390625 C-176.19153317 233.39576652 -173.76261179 228.062743 -171.4196924 222.67915106 C-169.98194353 219.4958139 -168.23082827 216.54358658 -166.453125 213.5390625 C-167.48772637 213.54182788 -168.52232775 213.54459326 -169.58828068 213.54744244 C-194.75984387 213.61403459 -219.93139563 213.66333671 -245.1030283 213.69449902 C-257.27583 213.70996934 -269.44857353 213.73106209 -281.62133789 213.76538086 C-292.23084185 213.79527806 -302.84030368 213.8146363 -313.44984859 213.82132798 C-319.06776485 213.82523967 -324.68556056 213.83443629 -330.30343819 213.85625267 C-335.59176356 213.87662278 -340.87991877 213.88289518 -346.16827965 213.87838554 C-348.10848032 213.8792105 -350.04868672 213.88517297 -351.98885345 213.89667892 C-354.64032474 213.9116312 -357.29115574 213.90800613 -359.94264221 213.89982605 C-360.70822388 213.90856457 -361.47380554 213.9173031 -362.26258665 213.92630643 C-367.36139573 213.88386406 -370.93958634 212.96861183 -375.453125 210.5390625 C-377.55375255 207.38812117 -377.79625786 206.3166259 -377.890625 202.6640625 C-377.95056641 201.39949219 -377.95056641 201.39949219 -378.01171875 200.109375 C-377.17897591 196.27759324 -375.51529835 194.94976228 -372.453125 192.5390625 C-369.47965481 191.81413646 -366.58683811 191.86097057 -363.5377655 191.89982605 C-362.18991037 191.88729254 -362.18991037 191.88729254 -360.81482583 191.87450582 C-357.80348379 191.85255634 -354.79335897 191.86618907 -351.78198242 191.87963867 C-349.62362745 191.87118705 -347.46528011 191.86054368 -345.3069458 191.84786987 C-339.44575258 191.81967683 -333.58492474 191.82220353 -327.72368407 191.83016372 C-321.59904415 191.8332845 -315.47452148 191.80826693 -309.34992981 191.78620911 C-297.75134614 191.74872486 -286.15287973 191.73661851 -274.55424148 191.7335847 C-261.34996702 191.72889864 -248.14581038 191.69598979 -234.94158781 191.66068685 C-207.77878115 191.58869761 -180.61601934 191.55222681 -153.453125 191.5390625 C-153.06535385 190.84425278 -152.6775827 190.14944305 -152.27806091 189.43357849 C-150.48201065 186.21684249 -148.68437171 183.00099685 -146.88671875 179.78515625 C-146.27711304 178.69279663 -145.66750732 177.60043701 -145.03942871 176.47497559 C-140.93758935 169.14048001 -136.76123279 161.85374214 -132.515625 154.6015625 C-131.86851562 153.49546631 -131.22140625 152.38937012 -130.5546875 151.24975586 C-130.04679687 150.38487549 -129.53890625 149.51999512 -129.015625 148.62890625 C-125.32099184 142.32335821 -121.66461029 135.99611126 -118.015625 129.6640625 C-117.08617065 128.05144531 -117.08617065 128.05144531 -116.13793945 126.40625 C-114.87906517 124.22161292 -113.62035824 122.0368794 -112.36181641 119.85205078 C-109.14433828 114.2673516 -105.92371357 108.68446833 -102.703125 103.1015625 C-102.13795166 102.1213916 -101.57277832 101.1412207 -100.99047852 100.13134766 C-97.23798367 93.625451 -93.47737285 87.12428805 -89.71386719 80.62475586 C-88.95280167 79.31030109 -88.95280167 79.31030109 -88.17636108 77.96929169 C-86.93531558 75.82586274 -85.6942361 73.68245347 -84.453125 71.5390625 C-85.58207687 71.53763748 -86.71102875 71.53621246 -87.87419128 71.53474426 C-98.512604 71.51807606 -109.15063412 71.47530774 -119.78884411 71.40697193 C-125.25812961 71.37267853 -130.72713509 71.34758826 -136.1965332 71.34350586 C-141.47469055 71.33922801 -146.75221594 71.31080751 -152.03017616 71.26563072 C-154.04396191 71.25263936 -156.05782323 71.24835382 -158.07164574 71.25290871 C-160.89245242 71.257803 -163.71140377 71.23177457 -166.53198242 71.19848633 C-167.78139366 71.21142479 -167.78139366 71.21142479 -169.05604553 71.22462463 C-173.35465492 71.13956357 -174.9788026 70.91413429 -178.4691925 68.15409851 C-180.62414295 65.31364248 -181.13307462 64.0558383 -181.078125 60.5390625 C-181.09101563 59.7140625 -181.10390625 58.8890625 -181.1171875 58.0390625 C-180.11601045 54.26992539 -178.5393266 52.92059189 -175.453125 50.5390625 C-172.08484611 49.79646475 -168.77699272 49.84856677 -165.33862305 49.87963867 C-163.81597084 49.86391312 -163.81597084 49.86391312 -162.26255798 49.84786987 C-158.91300942 49.81910786 -155.56449374 49.82541309 -152.21484375 49.83203125 C-149.89027103 49.81891699 -147.56570972 49.80361362 -145.24116516 49.78620911 C-139.12716679 49.74631492 -133.01346621 49.73616574 -126.89935303 49.73217773 C-120.65872132 49.72285474 -114.4182652 49.68544634 -108.17773438 49.65039062 C-95.93620615 49.58576955 -83.69480886 49.55256644 -71.453125 49.5390625 C-71.05258911 48.82166901 -70.65205322 48.10427551 -70.23937988 47.36514282 C-68.73327273 44.66860853 -67.22634022 41.97253756 -65.71887207 39.27676392 C-64.75368837 37.55017414 -63.78943232 35.82306591 -62.82519531 34.09594727 C-45.77067667 3.60487248 -45.77067667 3.60487248 -30.6796875 -2.6015625 C-20.70278303 -5.2588494 -9.24335727 -4.57061036 0 0 Z M-30.015625 21.4765625 C-33.73770024 26.15301601 -36.56387851 31.31843555 -39.453125 36.5390625 C-36.96113035 39.31582652 -34.1914497 41.01856852 -30.98046875 42.89453125 C-29.91634766 43.51650391 -28.85222656 44.13847656 -27.75585938 44.77929688 C-26.64533203 45.42189453 -25.53480469 46.06449219 -24.390625 46.7265625 C-23.27623047 47.38076172 -22.16183594 48.03496094 -21.01367188 48.70898438 C-16.03413472 52.07587474 -16.03413472 52.07587474 -10.453125 53.5390625 C-8.65974857 50.93517616 -8.65974857 50.93517616 -6.890625 47.7265625 C-6.27058594 46.64761719 -5.65054688 45.56867187 -5.01171875 44.45703125 C-2.16513859 39.12771953 -1.82112456 34.47986667 -2.453125 28.5390625 C-3.76817234 24.34041737 -6.10204448 21.47737191 -9.828125 19.1640625 C-17.69387247 15.63803777 -23.17350348 16.30325111 -30.015625 21.4765625 Z M-50.453125 55.5390625 C-50.82896729 56.19052246 -51.20480957 56.84198242 -51.59204102 57.51318359 C-67.89758301 85.77612305 -67.89758301 85.77612305 -84.203125 114.0390625 C-84.82195557 115.11172363 -85.44078613 116.18438477 -86.07836914 117.28955078 C-87.32748018 119.45463321 -88.57666629 121.61967232 -89.82592773 123.78466797 C-92.96514809 129.22521956 -96.10303063 134.66653466 -99.23828125 140.109375 C-105.26059829 150.56112449 -111.29981837 161.00205798 -117.390625 171.4140625 C-122.46587623 180.09168491 -127.47571267 188.80511818 -132.453125 197.5390625 C-137.98940613 207.25366276 -143.5782613 216.9355779 -149.22558594 226.58618164 C-154.22042795 235.12531465 -159.16866876 243.69084924 -164.09399414 252.27026367 C-166.90443079 257.15828705 -169.73208728 262.03054642 -172.65625 266.8515625 C-173.37216309 268.03794312 -173.37216309 268.03794312 -174.10253906 269.24829102 C-174.97582752 270.68909068 -175.85745787 272.12488146 -176.74902344 273.55444336 C-177.72749962 275.17177492 -178.60180994 276.85133039 -179.453125 278.5390625 C-178.10616331 282.57994756 -176.34036798 283.03757734 -172.66796875 285.11328125 C-171.80444542 285.606325 -171.80444542 285.606325 -170.92347717 286.10932922 C-169.08393961 287.15703919 -167.23751213 288.19187369 -165.390625 289.2265625 C-164.14210343 289.9347106 -162.89405025 290.64368519 -161.64648438 291.35351562 C-158.58740785 293.09165382 -155.5220257 294.81831651 -152.453125 296.5390625 C-149.61353869 293.87766118 -147.58460939 291.36647685 -145.7109375 287.9609375 C-145.20973389 287.06028564 -144.70853027 286.15963379 -144.19213867 285.23168945 C-143.3932019 283.77508911 -143.3932019 283.77508911 -142.578125 282.2890625 C-141.41164956 280.19317861 -140.24363275 278.09815197 -139.07421875 276.00390625 C-138.47464355 274.92866699 -137.87506836 273.85342773 -137.25732422 272.74560547 C-134.44429739 267.7461069 -131.54471917 262.79854243 -128.640625 257.8515625 C-123.52013796 249.11332446 -118.46651132 240.33899074 -113.453125 231.5390625 C-107.94065641 221.86415466 -102.36887801 212.22623887 -96.7421875 202.6171875 C-92.26146235 194.95332276 -87.84818276 187.25220415 -83.453125 179.5390625 C-77.91326567 169.81781744 -72.31937568 160.13011382 -66.66967773 150.47216797 C-62.42695227 143.21694524 -58.21314446 135.94552931 -54.015625 128.6640625 C-53.39655273 127.59019287 -52.77748047 126.51632324 -52.13964844 125.40991211 C-49.58989704 120.98555754 -47.04130419 116.56053663 -44.49316406 112.13525391 C-36.87208637 98.90132994 -29.23208967 85.68093694 -21.453125 72.5390625 C-24.51760655 70.14217261 -27.69959173 68.14377243 -31.05859375 66.18359375 C-32.12400391 65.56162109 -33.18941406 64.93964844 -34.28710938 64.29882812 C-35.39376953 63.65623047 -36.50042969 63.01363281 -37.640625 62.3515625 C-38.75888672 61.69736328 -39.87714844 61.04316406 -41.02929688 60.36914062 C-45.49617186 57.21659195 -45.49617186 57.21659195 -50.453125 55.5390625 Z M-445.453125 158.5390625 C-453.31623693 167.28842446 -453.60721173 177.78152632 -453.57337952 189.02366638 C-453.57423394 190.06686966 -453.57508837 191.11007293 -453.57596868 192.18488842 C-453.57761312 195.67332536 -453.57211906 199.16171399 -453.56665039 202.65014648 C-453.56636827 205.15361022 -453.56652674 207.65707403 -453.5670929 210.16053772 C-453.56732046 215.54667721 -453.56448776 220.93280172 -453.55885506 226.3189373 C-453.5507165 234.10631483 -453.54812242 241.89368651 -453.54686707 249.68106783 C-453.54468025 262.31659738 -453.5380302 274.95212045 -453.52856445 287.58764648 C-453.51938076 299.85945605 -453.51230461 312.13126386 -453.50805664 324.40307617 C-453.50779392 325.15993398 -453.50753119 325.9167918 -453.50726051 326.69658469 C-453.50595544 330.49364434 -453.50469174 334.290704 -453.50344861 338.08776367 C-453.49308752 369.57153479 -453.47520341 401.05529731 -453.453125 432.5390625 C-446.853125 432.5390625 -440.253125 432.5390625 -433.453125 432.5390625 C-433.453125 339.8090625 -433.453125 247.0790625 -433.453125 151.5390625 C-438.52840102 151.5390625 -441.80132709 155.25308618 -445.453125 158.5390625 Z M-41.453125 151.5390625 C-41.453125 244.2690625 -41.453125 336.9990625 -41.453125 432.5390625 C-34.853125 432.5390625 -28.253125 432.5390625 -21.453125 432.5390625 C-21.40788547 400.35118542 -21.3720913 368.16332049 -21.35099434 335.97541914 C-21.34849301 332.17290307 -21.34590436 328.37038707 -21.34326172 324.56787109 C-21.3427371 323.81087805 -21.34221248 323.053885 -21.34167196 322.27395277 C-21.33297606 310.02663079 -21.31721058 297.77932764 -21.29881941 285.53201683 C-21.28009768 272.95945175 -21.26900347 260.38689651 -21.26494801 247.81431806 C-21.26220767 240.0601839 -21.25356128 232.30610296 -21.23729207 224.55198519 C-21.22544229 218.60002044 -21.2242194 212.64808283 -21.22690964 206.69610596 C-21.22636014 204.25889127 -21.22239156 201.82167455 -21.21471405 199.38447189 C-21.2047298 196.05105114 -21.20716893 192.71785616 -21.21261597 189.38442993 C-21.20387744 187.94567125 -21.20387744 187.94567125 -21.19496238 186.47784674 C-21.23956357 176.34489787 -22.38051337 165.98214577 -29.5390625 158.30078125 C-33.69549822 154.41361628 -35.69960185 152.68976713 -41.453125 151.5390625 Z M-185.453125 301.5390625 C-187.58343592 310.14303669 -188.03752513 318.7239706 -188.453125 327.5390625 C-184.39208776 325.74772778 -180.96165499 323.13482677 -177.390625 320.5390625 C-170.66145833 315.67795139 -170.66145833 315.67795139 -167.453125 313.5390625 C-167.453125 312.8790625 -167.453125 312.2190625 -167.453125 311.5390625 C-169.05131729 310.30928367 -169.05131729 310.30928367 -171.13671875 309.15625 C-171.89919922 308.71152344 -172.66167969 308.26679688 -173.44726562 307.80859375 C-174.25357422 307.34839844 -175.05988281 306.88820313 -175.890625 306.4140625 C-176.69306641 305.94613281 -177.49550781 305.47820312 -178.32226562 304.99609375 C-181.69362342 302.67302777 -181.69362342 302.67302777 -185.453125 301.5390625 Z M-473.453125 452.5390625 C-473.77407516 469.24187427 -473.77407516 469.24187427 -465.453125 482.5390625 C-456.4511526 490.14072808 -444.33999236 488.82464094 -433.25878906 488.79302979 C-431.50026953 488.79533587 -429.74175097 488.79851339 -427.98323441 488.80248427 C-423.1638473 488.81082055 -418.34453957 488.80671228 -413.52515221 488.80051184 C-408.32263023 488.79598359 -403.12012182 488.80297296 -397.91760254 488.80847168 C-387.73094377 488.81736332 -377.54431449 488.81544468 -367.35765457 488.8096464 C-359.07848112 488.80512902 -350.79931593 488.80451733 -342.5201416 488.80669403 C-340.75241264 488.80715373 -340.75241264 488.80715373 -338.94897199 488.80762272 C-336.55487537 488.80826217 -334.16077876 488.8089106 -331.76668215 488.8095679 C-309.31900964 488.81527052 -286.87135347 488.80871435 -264.42368364 488.79796717 C-245.163958 488.78903172 -225.90425646 488.79058378 -206.64453125 488.79980469 C-184.27699257 488.8105085 -161.90946822 488.81472121 -139.54192734 488.80858016 C-137.15665436 488.80794306 -134.77138138 488.80731432 -132.3861084 488.80669403 C-130.62572389 488.8062312 -130.62572389 488.8062312 -128.82977605 488.80575903 C-120.56087097 488.80403242 -112.29197497 488.80694645 -104.02307129 488.81165314 C-93.94559847 488.81726319 -83.86815681 488.81574286 -73.79068756 488.80509165 C-68.6493661 488.79983665 -63.50809658 488.79777532 -58.36677551 488.80438995 C-53.65915143 488.810355 -48.95162738 488.80706506 -44.24401236 488.79643485 C-42.54224925 488.79420319 -40.84047768 488.79533185 -39.13872004 488.80018643 C-21.92013437 489.01066721 -21.92013437 489.01066721 -7.453125 480.5390625 C-0.48932056 472.47570999 -1.453125 462.80853474 -1.453125 452.5390625 C-157.213125 452.5390625 -312.973125 452.5390625 -473.453125 452.5390625 Z " fill="#000000" transform="translate(493.453125,3.4609375)"/>
<path d="M0 0 C0.66227978 -0.00779995 1.32455956 -0.01559991 2.00690842 -0.02363622 C4.21904408 -0.04352972 6.42945415 -0.02780467 8.64160156 -0.01205444 C10.23027549 -0.01883184 11.81894157 -0.02773567 13.40759277 -0.03860474 C17.71760841 -0.06139049 22.02702534 -0.05256497 26.33705139 -0.03670931 C30.84841521 -0.02404647 35.35972791 -0.03579148 39.87109375 -0.04364014 C47.44703369 -0.05273559 55.02272988 -0.04075156 62.59863281 -0.01693726 C71.35626636 0.01027391 80.1133179 0.00145967 88.87093735 -0.02606928 C96.39127457 -0.04876236 103.91143663 -0.05195949 111.43179703 -0.03887594 C115.92284942 -0.03108249 120.41362829 -0.03003682 124.90466309 -0.04655838 C129.1270928 -0.06100688 133.3487725 -0.05097512 137.57112122 -0.0220871 C139.12029271 -0.01547822 140.66952738 -0.01737069 142.21867371 -0.02840042 C144.33478411 -0.0420773 146.44849545 -0.02492054 148.56445312 0 C149.74799377 0.00188513 150.93153442 0.00377026 152.15093994 0.00571251 C156.20982757 0.82131183 157.71040045 2.46301778 160.28222656 5.63491821 C160.91714478 8.10073853 160.91714478 8.10073853 160.92919922 10.71304321 C160.94496002 11.6975647 160.96072083 12.68208618 160.97695923 13.69644165 C160.96683807 14.74863892 160.95671692 15.80083618 160.94628906 16.88491821 C160.95107269 17.97578735 160.95585632 19.06665649 160.96078491 20.19058228 C160.96418269 22.49365687 160.95498899 24.79677976 160.93408203 27.09976196 C160.90731716 30.62299239 160.93383658 34.14303677 160.96582031 37.66616821 C160.9625162 39.90575857 160.95610993 42.14534695 160.94628906 44.38491821 C160.95641022 45.43711548 160.96653137 46.48931274 160.97695923 47.57339478 C160.95331802 49.050177 160.95331802 49.050177 160.92919922 50.55679321 C160.92522125 51.41885376 160.92124329 52.28091431 160.91714478 53.1690979 C159.98190808 56.80125965 158.14347415 58.26502948 155.28222656 60.63491821 C152.15093994 61.26412392 152.15093994 61.26412392 148.56445312 61.26983643 C147.90217335 61.27763638 147.23989357 61.28543633 146.55754471 61.29347265 C144.34540905 61.31336615 142.13499898 61.29764109 139.92285156 61.28189087 C138.33417763 61.28866827 136.74551156 61.29757209 135.15686035 61.30844116 C130.84684471 61.33122691 126.53742778 61.3224014 122.22740173 61.30654573 C117.71603792 61.2938829 113.20472521 61.30562791 108.69335938 61.31347656 C101.11741944 61.32257202 93.54172324 61.31058799 85.96582031 61.28677368 C77.20818676 61.25956252 68.45113522 61.26837676 59.69351578 61.29590571 C52.17317855 61.31859879 44.6530165 61.32179592 37.1326561 61.30871236 C32.6416037 61.30091891 28.15082484 61.29987325 23.65979004 61.31639481 C19.43736033 61.33084331 15.21568063 61.32081155 10.99333191 61.29192352 C9.44416041 61.28531464 7.89492575 61.28720711 6.34577942 61.29823685 C4.22966902 61.31191373 2.11595767 61.29475697 0 61.26983643 C-1.18354065 61.2679513 -2.3670813 61.26606617 -3.58648682 61.26412392 C-7.64537444 60.44852459 -9.14594733 58.80681865 -11.71777344 55.63491821 C-12.35269165 53.1690979 -12.35269165 53.1690979 -12.36474609 50.55679321 C-12.3805069 49.57227173 -12.3962677 48.58775024 -12.4125061 47.57339478 C-12.39732437 45.99509888 -12.39732437 45.99509888 -12.38183594 44.38491821 C-12.38661957 43.29404907 -12.3914032 42.20317993 -12.39633179 41.07925415 C-12.39972956 38.77617956 -12.39053587 36.47305666 -12.36962891 34.17007446 C-12.34286403 30.64684404 -12.36938345 27.12679965 -12.40136719 23.60366821 C-12.39806307 21.36407785 -12.3916568 19.12448948 -12.38183594 16.88491821 C-12.39195709 15.83272095 -12.40207825 14.78052368 -12.4125061 13.69644165 C-12.3967453 12.71192017 -12.3809845 11.72739868 -12.36474609 10.71304321 C-12.36076813 9.85098267 -12.35679016 8.98892212 -12.35269165 8.10073853 C-10.70324397 1.69480857 -6.0735124 0.00967381 0 0 Z M8.28222656 20.63491821 C8.28222656 27.23491821 8.28222656 33.83491821 8.28222656 40.63491821 C51.84222656 40.63491821 95.40222656 40.63491821 140.28222656 40.63491821 C140.28222656 34.03491821 140.28222656 27.43491821 140.28222656 20.63491821 C96.72222656 20.63491821 53.16222656 20.63491821 8.28222656 20.63491821 Z " fill="#000000" transform="translate(127.7177734375,109.36508178710938)"/>
<path d="M0 0 C1.02657715 -0.0087616 2.0531543 -0.01752319 3.11083984 -0.02655029 C6.50140756 -0.0485419 9.89066922 -0.03399136 13.28125 -0.01708984 C15.63867442 -0.02045802 17.99609715 -0.02531064 20.35351562 -0.03158569 C25.29313701 -0.03895675 30.23230619 -0.02824333 35.171875 -0.00488281 C41.50415033 0.02360429 47.83536609 0.00720168 54.16760254 -0.02274513 C59.03523749 -0.04081132 63.90262116 -0.03506301 68.77026367 -0.02210617 C71.10506312 -0.01877032 73.43988538 -0.02286546 75.7746582 -0.03450394 C79.03788699 -0.04720069 82.29939911 -0.02784981 85.5625 0 C86.52784668 -0.01012115 87.49319336 -0.02024231 88.48779297 -0.03067017 C93.11247245 0.04246547 95.12222312 0.13146101 98.86694336 3.06069946 C101.50310859 6.62222055 102.21101549 9.25476937 101.78125 13.64697266 C100.08520969 17.31041974 98.93663971 19.12822781 95.22679138 20.79386902 C90.82426373 21.88391901 86.73323462 21.93429582 82.21508789 21.92163086 C81.26960587 21.92674179 80.32412384 21.93185272 79.34999084 21.93711853 C76.23456435 21.95098213 73.11935987 21.95006025 70.00390625 21.94775391 C67.83206602 21.95164244 65.66022655 21.95597744 63.48838806 21.96073914 C58.93990614 21.96819428 54.39150184 21.96791504 49.84301758 21.96264648 C44.02126705 21.95685107 38.19983458 21.97378822 32.37813663 21.99699116 C27.89393768 22.01173942 23.40981515 22.01259872 18.92559624 22.00948143 C16.7794475 22.00999403 14.63329442 22.01522027 12.48716927 22.02529335 C9.4835061 22.03766219 6.4804603 22.03086327 3.47680664 22.01928711 C2.15413788 22.03075272 2.15413788 22.03075272 0.80474854 22.04244995 C-4.61107705 21.99643359 -8.44527495 21.27833705 -13.21875 18.64697266 C-15.31937755 15.49603133 -15.56188286 14.42453605 -15.65625 10.77197266 C-15.69621094 9.92892578 -15.73617187 9.08587891 -15.77734375 8.21728516 C-13.95506647 -0.16773899 -7.04854023 -0.07390026 0 0 Z " fill="#000000" transform="translate(131.21875,379.35302734375)"/>
<path d="M0 0 C3.125 1.875 3.125 1.875 5 5 C5.98876625 10.02622846 5.7769173 13.70513784 3.125 18.125 C-1.29486216 20.7769173 -4.97377154 20.98876625 -10 20 C-13.125 18.125 -13.125 18.125 -15 15 C-15.98876625 9.97377154 -15.7769173 6.29486216 -13.125 1.875 C-8.70513784 -0.7769173 -5.02622846 -0.98876625 0 0 Z " fill="#000000" transform="translate(283,54)"/>
</svg>
